<svg xmlns="http://www.w3.org/2000/svg" width="150.39" height="58.997" viewBox="0 0 150.39 58.997">
  <g id="Group_205" data-name="Group 205" transform="translate(0 0)">
    <path id="Path_1" data-name="Path 1" d="M1093.9,207.849l5.337,4.079-23.478,17.945v-11.4l27.723-21.19-29.012-22.176-29.013,22.176v14.646l29.013,22.175,29.012-22.175-7.459-5.7Zm-18.141-28.514,23.478,17.947-7.459,5.7h0l-16.019-12.246Zm-2.578,0v11.4l-16.019,12.245h0l-7.459-5.7Zm-25.145,19.917,7,5.352-7,5.352Zm13.39,6.989-2.121,1.622,13.877,10.607v11.4L1049.7,211.928,1074.469,193l15.186,11.609h0l-15.186,11.607Z" transform="translate(-1045.456 -175.106)" fill="#14bdef"/>
    <path id="Path_2" data-name="Path 2" d="M1286.09,261.7a7.1,7.1,0,0,1-1.763.2,6.859,6.859,0,1,1,1.757-13.512l2.495-1.907a8.936,8.936,0,0,0-4.177-1.009,9.732,9.732,0,0,0-6.858,2.766,9.559,9.559,0,0,0-.018,13.574,9.691,9.691,0,0,0,6.875,2.8,8.936,8.936,0,0,0,4.177-1.009l-2.489-1.9" transform="translate(-1209.783 -225.547)"/>
    <path id="Path_3" data-name="Path 3" d="M1346.259,265.7l-1.423-3.5h-7.684l-1.423,3.5H1332.7l8.289-18.709,8.289,18.709Zm-8.1-5.956h5.666l-2.833-6.905Z" transform="translate(-1251.356 -226.634)"/>
    <path id="Path_4" data-name="Path 4" d="M1399.665,265.879V247.24h6.274a5.331,5.331,0,0,1,5.325,5.325,4.317,4.317,0,0,1-1.268,3.144l-.268.281.344.18a4.884,4.884,0,0,1,2.564,4.384,5.331,5.331,0,0,1-5.325,5.325Zm2.661-2.661h4.986a2.706,2.706,0,0,0,2.664-2.739,2.649,2.649,0,0,0-2.664-2.689h-4.986Zm0-7.889h3.613a2.648,2.648,0,0,0,2.664-2.689,2.705,2.705,0,0,0-2.664-2.739h-3.613Z" transform="translate(-1299.352 -226.812)"/>
    <path id="Path_5" data-name="Path 5" d="M1464.569,264.615a9.569,9.569,0,1,1,9.569-9.569,9.58,9.58,0,0,1-9.569,9.569m0-16.478a6.909,6.909,0,1,0,6.908,6.908,6.916,6.916,0,0,0-6.908-6.908" transform="translate(-1339.016 -225.548)"/>
    <path id="Path_6" data-name="Path 6" d="M1537.218,265.879l2.661-2.034V249.9h4.918V247.24h-12.522V249.9h4.943Z" transform="translate(-1394.407 -226.812)"/>
  </g>
</svg>
